<svg width="40" height="30" viewBox="0 0 40 30" fill="none" xmlns="http://www.w3.org/2000/svg">
<g clip-path="url(#clip0_61_100)">
<path d="M37.619 13.125H2.38095C2.30872 13.1254 2.23752 13.1419 2.17268 13.1732C2.10784 13.2046 2.05104 13.2499 2.00652 13.3059C1.962 13.3619 1.93093 13.4271 1.91561 13.4966C1.9003 13.5661 1.90115 13.6381 1.91809 13.7072L5.73333 28.7231C5.82476 29.0391 6.10571 30 7.14286 30H32.8571C33.8981 30 34.1762 29.0381 34.2714 28.7072L38.0809 13.7072C38.0985 13.6381 38.0997 13.566 38.0847 13.4964C38.0697 13.4267 38.0387 13.3613 37.9942 13.3052C37.9497 13.2491 37.8928 13.2037 37.8278 13.1725C37.7628 13.1413 37.6914 13.125 37.619 13.125ZM33.3524 28.4653C33.179 29.0625 33 29.0625 32.8571 29.0625H7.14286C7.00095 29.0625 6.82286 29.0625 6.65238 28.4803L2.99143 14.0625H37.0095L33.3524 28.4653Z" fill="#042A2B"/>
<path d="M17.619 26.25C17.7453 26.25 17.8665 26.2006 17.9558 26.1127C18.0451 26.0248 18.0952 25.9056 18.0952 25.7812V17.3438C18.0952 17.2194 18.0451 17.1002 17.9558 17.0123C17.8665 16.9244 17.7453 16.875 17.619 16.875C17.4927 16.875 17.3716 16.9244 17.2823 17.0123C17.193 17.1002 17.1429 17.2194 17.1429 17.3438V25.7812C17.1429 25.9056 17.193 26.0248 17.2823 26.1127C17.3716 26.2006 17.4927 26.25 17.619 26.25Z" fill="#042A2B"/>
<path d="M10.9514 26.25C11.0185 26.2502 11.0848 26.2364 11.146 26.2095C11.2073 26.1827 11.2621 26.1435 11.3068 26.0943C11.3516 26.0452 11.3853 25.9874 11.4058 25.9245C11.4263 25.8617 11.4331 25.7953 11.4257 25.7297L10.4733 17.2922C10.4594 17.1686 10.3962 17.0556 10.2977 16.9779C10.1991 16.9001 10.0732 16.8642 9.94762 16.8778C9.82208 16.8915 9.70721 16.9537 9.62826 17.0508C9.54932 17.1478 9.51277 17.2718 9.52666 17.3953L10.479 25.8328C10.4919 25.9474 10.5472 26.0532 10.6343 26.1302C10.7215 26.2071 10.8344 26.2498 10.9514 26.25Z" fill="#042A2B"/>
<path d="M23.3333 26.25C23.4596 26.25 23.5808 26.2006 23.6701 26.1127C23.7594 26.0248 23.8095 25.9056 23.8095 25.7812V17.3438C23.8095 17.2194 23.7594 17.1002 23.6701 17.0123C23.5808 16.9244 23.4596 16.875 23.3333 16.875C23.207 16.875 23.0859 16.9244 22.9966 17.0123C22.9073 17.1002 22.8571 17.2194 22.8571 17.3438V25.7812C22.8571 25.9056 22.9073 26.0248 22.9966 26.1127C23.0859 26.2006 23.207 26.25 23.3333 26.25Z" fill="#042A2B"/>
<path d="M28.9943 26.2472L29.0486 26.25C29.1656 26.2498 29.2785 26.2071 29.3657 26.1302C29.4528 26.0532 29.5081 25.9474 29.521 25.8328L30.4733 17.3953C30.4872 17.2718 30.4507 17.1478 30.3717 17.0508C30.2928 16.9537 30.1779 16.8915 30.0524 16.8778C29.9268 16.8642 29.8009 16.9001 29.7023 16.9779C29.6038 17.0556 29.5406 17.1686 29.5267 17.2922L28.5743 25.7297C28.5604 25.8531 28.5968 25.977 28.6755 26.074C28.7543 26.171 28.8689 26.2333 28.9943 26.2472Z" fill="#042A2B"/>
<path d="M32.8571 11.25C32.9484 11.25 33.0377 11.2241 33.1144 11.1756C33.1911 11.127 33.2521 11.0578 33.29 10.9761C33.3279 10.8945 33.3412 10.8038 33.3283 10.7149C33.3154 10.626 33.2768 10.5426 33.2171 10.4747L24.1695 0.162201C24.0853 0.0745707 23.97 0.0222838 23.8476 0.0162183C23.7252 0.0101529 23.6051 0.0507759 23.5124 0.129636C23.4196 0.208496 23.3613 0.31952 23.3496 0.43961C23.3379 0.5597 23.3737 0.679608 23.4495 0.774388L32.4972 11.0869C32.5416 11.1381 32.5968 11.1792 32.659 11.2073C32.7211 11.2355 32.7887 11.25 32.8571 11.25Z" fill="#042A2B"/>
<path d="M16.9676 0.105994C16.8698 0.0275135 16.7444 -0.00955672 16.6189 0.0029233C16.4933 0.0154033 16.378 0.0764133 16.2981 0.172556L7.72667 10.4851C7.68425 10.5323 7.65196 10.5876 7.63173 10.6474C7.6115 10.7073 7.60376 10.7706 7.60896 10.8334C7.61417 10.8963 7.63221 10.9575 7.66201 11.0134C7.69182 11.0692 7.73276 11.1186 7.7824 11.1585C7.83204 11.1984 7.88936 11.228 7.9509 11.2456C8.01245 11.2631 8.07697 11.2683 8.1406 11.2607C8.20422 11.2532 8.26565 11.2331 8.32119 11.2016C8.37672 11.1701 8.42524 11.1279 8.46382 11.0776L17.0352 0.765056C17.115 0.668796 17.1526 0.545324 17.14 0.421754C17.1273 0.298184 17.0653 0.184618 16.9676 0.105994Z" fill="#042A2B"/>
<path d="M39.5238 9.375H35.7143C35.588 9.375 35.4669 9.42439 35.3776 9.51229C35.2883 9.6002 35.2381 9.71943 35.2381 9.84375C35.2381 9.96807 35.2883 10.0873 35.3776 10.1752C35.4669 10.2631 35.588 10.3125 35.7143 10.3125H39.5238C39.6501 10.3125 39.7712 10.2631 39.8605 10.1752C39.9498 10.0873 40 9.96807 40 9.84375C40 9.71943 39.9498 9.6002 39.8605 9.51229C39.7712 9.42439 39.6501 9.375 39.5238 9.375Z" fill="#042A2B"/>
<path d="M12.8571 10.3125H28.0952C28.2215 10.3125 28.3427 10.2631 28.432 10.1752C28.5213 10.0873 28.5714 9.96807 28.5714 9.84375C28.5714 9.71943 28.5213 9.6002 28.432 9.51229C28.3427 9.42439 28.2215 9.375 28.0952 9.375H12.8571C12.7308 9.375 12.6097 9.42439 12.5204 9.51229C12.4311 9.6002 12.381 9.71943 12.381 9.84375C12.381 9.96807 12.4311 10.0873 12.5204 10.1752C12.6097 10.2631 12.7308 10.3125 12.8571 10.3125Z" fill="#042A2B"/>
<path d="M0.47619 10.3125H5.2381C5.36439 10.3125 5.48551 10.2631 5.57481 10.1752C5.66412 10.0873 5.71429 9.96807 5.71429 9.84375C5.71429 9.71943 5.66412 9.6002 5.57481 9.51229C5.48551 9.42439 5.36439 9.375 5.2381 9.375H0.47619C0.349897 9.375 0.228776 9.42439 0.139473 9.51229C0.0501699 9.6002 0 9.71943 0 9.84375C0 9.96807 0.0501699 10.0873 0.139473 10.1752C0.228776 10.2631 0.349897 10.3125 0.47619 10.3125Z" fill="#042A2B"/>
</g>
<defs>
<clipPath id="clip0_61_100">
<rect width="40" height="30" fill="white"/>
</clipPath>
</defs>
</svg>
