<svg width="36" height="36" viewBox="0 0 36 36" fill="none" xmlns="http://www.w3.org/2000/svg">
<path d="M18.0008 17C19.4767 17.002 20.92 16.5661 22.1481 15.7476C23.3762 14.9291 24.3339 13.7647 24.9 12.4018C25.4662 11.0388 25.6154 9.53852 25.3287 8.09076C25.0419 6.64301 24.3322 5.31283 23.2893 4.26853C22.2464 3.22423 20.9172 2.51274 19.4698 2.22408C18.0225 1.93542 16.522 2.08257 15.1583 2.64691C13.7946 3.21124 12.6289 4.1674 11.8087 5.39441C10.9886 6.62141 10.5508 8.06412 10.5508 9.54C10.5508 11.5168 11.3354 13.4127 12.7322 14.8115C14.1291 16.2102 16.024 16.9973 18.0008 17ZM18.0008 4.07C19.0815 4.06802 20.1385 4.38682 21.038 4.98601C21.9374 5.5852 22.6387 6.43783 23.0532 7.43592C23.4677 8.43402 23.5767 9.53267 23.3663 10.5927C23.156 11.6528 22.6358 12.6266 21.8716 13.3908C21.1074 14.155 20.1336 14.6752 19.0735 14.8856C18.0134 15.0959 16.9148 14.987 15.9167 14.5725C14.9186 14.158 14.066 13.4566 13.4668 12.5572C12.8676 11.6577 12.5488 10.6007 12.5508 9.52C12.5534 8.07538 13.1285 6.69069 14.15 5.66919C15.1715 4.64769 16.5562 4.07264 18.0008 4.07Z" fill="white"/>
<path d="M6.00063 31.89V25.77C7.5445 24.1497 9.40868 22.8683 11.4746 22.0075C13.5405 21.1467 15.763 20.7253 18.0006 20.77C21.0633 20.7287 24.0777 21.5351 26.7106 23.1L28.0606 21.59C25.0504 19.694 21.558 18.7046 18.0006 18.74C15.3978 18.6737 12.8125 19.1824 10.4288 20.2299C8.0452 21.2774 5.92201 22.8378 4.21063 24.8C4.07723 24.9718 4.0035 25.1825 4.00063 25.4V31.89C3.98718 32.4347 4.19008 32.9625 4.56491 33.358C4.93975 33.7534 5.45598 33.9843 6.00063 34H18.3906L16.4906 32L6.00063 31.89Z" fill="white"/>
<path d="M30.0008 31.89V32H26.8508L25.0508 34H30.0008C30.5384 33.9843 31.0486 33.759 31.4223 33.3722C31.796 32.9854 32.0036 32.4678 32.0008 31.93V26.2L30.0008 28.43V31.89Z" fill="white"/>
<path d="M34.76 18.62C34.5623 18.444 34.3028 18.3536 34.0385 18.3686C33.7742 18.3835 33.5266 18.5027 33.35 18.7L21.73 31.7L16.53 26.11C16.4447 26.0102 16.3405 25.9282 16.2234 25.8686C16.1064 25.8091 15.9787 25.7732 15.8478 25.763C15.7169 25.7527 15.5852 25.7684 15.4603 25.8091C15.3355 25.8498 15.2198 25.9146 15.12 26C15.0223 26.0889 14.9431 26.1964 14.8871 26.3161C14.8311 26.4358 14.7994 26.5654 14.7939 26.6975C14.7883 26.8295 14.8089 26.9614 14.8546 27.0854C14.9003 27.2094 14.9701 27.3231 15.06 27.42L21.75 34.62L34.84 20C35.0069 19.8039 35.0918 19.551 35.0769 19.294C35.062 19.0369 34.9485 18.7955 34.76 18.62Z" fill="white"/>
</svg>
