<svg width="36" height="36" viewBox="0 0 36 36" fill="none" xmlns="http://www.w3.org/2000/svg">
<path fill-rule="evenodd" clip-rule="evenodd" d="M11.2514 25.875C11.2514 25.5766 11.3699 25.2905 11.5809 25.0795C11.7919 24.8685 12.0781 24.75 12.3764 24.75H32.6264C32.9248 24.75 33.2109 24.8685 33.4219 25.0795C33.6329 25.2905 33.7514 25.5766 33.7514 25.875C33.7514 26.1734 33.6329 26.4595 33.4219 26.6705C33.2109 26.8815 32.9248 27 32.6264 27H12.3764C12.0781 27 11.7919 26.8815 11.5809 26.6705C11.3699 26.4595 11.2514 26.1734 11.2514 25.875ZM11.2514 16.875C11.2514 16.5766 11.3699 16.2905 11.5809 16.0795C11.7919 15.8685 12.0781 15.75 12.3764 15.75H32.6264C32.9248 15.75 33.2109 15.8685 33.4219 16.0795C33.6329 16.2905 33.7514 16.5766 33.7514 16.875C33.7514 17.1734 33.6329 17.4595 33.4219 17.6705C33.2109 17.8815 32.9248 18 32.6264 18H12.3764C12.0781 18 11.7919 17.8815 11.5809 17.6705C11.3699 17.4595 11.2514 17.1734 11.2514 16.875ZM11.2514 7.875C11.2514 7.57663 11.3699 7.29048 11.5809 7.0795C11.7919 6.86852 12.0781 6.75 12.3764 6.75H32.6264C32.9248 6.75 33.2109 6.86852 33.4219 7.0795C33.6329 7.29048 33.7514 7.57663 33.7514 7.875C33.7514 8.17337 33.6329 8.45951 33.4219 8.67049C33.2109 8.88147 32.9248 9 32.6264 9H12.3764C12.0781 9 11.7919 8.88147 11.5809 8.67049C11.3699 8.45951 11.2514 8.17337 11.2514 7.875ZM8.67292 4.8285C8.77769 4.933 8.86081 5.05714 8.91752 5.19382C8.97424 5.3305 9.00343 5.47702 9.00343 5.625C9.00343 5.77297 8.97424 5.9195 8.91752 6.05617C8.86081 6.19285 8.77769 6.31699 8.67292 6.4215L5.29792 9.7965C5.19342 9.90126 5.06927 9.98439 4.9326 10.0411C4.79592 10.0978 4.6494 10.127 4.50142 10.127C4.35344 10.127 4.20692 10.0978 4.07025 10.0411C3.93357 9.98439 3.80942 9.90126 3.70492 9.7965L2.57992 8.6715C2.47532 8.5669 2.39235 8.44272 2.33574 8.30606C2.27914 8.1694 2.25 8.02292 2.25 7.875C2.25 7.72707 2.27914 7.5806 2.33574 7.44393C2.39235 7.30727 2.47532 7.18309 2.57992 7.0785C2.68452 6.9739 2.80869 6.89093 2.94536 6.83432C3.08202 6.77771 3.2285 6.74858 3.37642 6.74858C3.52434 6.74858 3.67082 6.77771 3.80748 6.83432C3.94415 6.89093 4.06832 6.9739 4.17292 7.0785L4.50142 7.40925L7.07992 4.8285C7.18442 4.72373 7.30857 4.64061 7.44524 4.58389C7.58192 4.52718 7.72844 4.49799 7.87642 4.49799C8.0244 4.49799 8.17092 4.52718 8.3076 4.58389C8.44427 4.64061 8.56842 4.72373 8.67292 4.8285ZM8.67292 13.8285C8.77769 13.933 8.86081 14.0571 8.91752 14.1938C8.97424 14.3305 9.00343 14.477 9.00343 14.625C9.00343 14.773 8.97424 14.9195 8.91752 15.0562C8.86081 15.1929 8.77769 15.317 8.67292 15.4215L5.29792 18.7965C5.19342 18.9013 5.06927 18.9844 4.9326 19.0411C4.79592 19.0978 4.6494 19.127 4.50142 19.127C4.35344 19.127 4.20692 19.0978 4.07025 19.0411C3.93357 18.9844 3.80942 18.9013 3.70492 18.7965L2.57992 17.6715C2.36868 17.4603 2.25 17.1737 2.25 16.875C2.25 16.5763 2.36868 16.2897 2.57992 16.0785C2.79117 15.8673 3.07768 15.7486 3.37642 15.7486C3.67517 15.7486 3.96168 15.8673 4.17292 16.0785L4.50142 16.4092L7.07992 13.8285C7.18442 13.7237 7.30857 13.6406 7.44524 13.5839C7.58192 13.5272 7.72844 13.498 7.87642 13.498C8.0244 13.498 8.17092 13.5272 8.3076 13.5839C8.44427 13.6406 8.56842 13.7237 8.67292 13.8285ZM8.67292 22.8285C8.77769 22.933 8.86081 23.0571 8.91752 23.1938C8.97424 23.3305 9.00343 23.477 9.00343 23.625C9.00343 23.773 8.97424 23.9195 8.91752 24.0562C8.86081 24.1928 8.77769 24.317 8.67292 24.4215L5.29792 27.7965C5.19342 27.9013 5.06927 27.9844 4.9326 28.0411C4.79592 28.0978 4.6494 28.127 4.50142 28.127C4.35344 28.127 4.20692 28.0978 4.07025 28.0411C3.93357 27.9844 3.80942 27.9013 3.70492 27.7965L2.57992 26.6715C2.36868 26.4603 2.25 26.1737 2.25 25.875C2.25 25.5763 2.36868 25.2897 2.57992 25.0785C2.79117 24.8673 3.07768 24.7486 3.37642 24.7486C3.67517 24.7486 3.96168 24.8673 4.17292 25.0785L4.50142 25.4092L7.07992 22.8285C7.18442 22.7237 7.30857 22.6406 7.44524 22.5839C7.58192 22.5272 7.72844 22.498 7.87642 22.498C8.0244 22.498 8.17092 22.5272 8.3076 22.5839C8.44427 22.6406 8.56842 22.7237 8.67292 22.8285Z" fill="#042A2B"/>
</svg>
