<svg width="36" height="36" viewBox="0 0 36 36" fill="none" xmlns="http://www.w3.org/2000/svg">
<g clip-path="url(#clip0_465_72)">
<path d="M24 1.8C22.5 1.8 21.3 3 21.3 4.5C21.3 6 22.5 7.2 24 7.2C25.5 7.2 26.7 6 26.7 4.5C26.7 3 25.5 1.8 24 1.8ZM18.6 6.15C17.895 6.15 17.25 6.435 16.8 6.9L11.25 12.435C10.785 12.9 10.5 13.5 10.5 14.25C10.5 15.195 10.995 15.99 11.775 16.455L16.8 19.5V27H19.5V17.25L16.125 14.775L19.605 11.25L22.2 15H28.5V12.3H23.7L20.79 7.395C20.355 6.645 19.5 6.15 18.6 6.15ZM15 4.5H4.5C3.675 4.5 3 3.825 3 3C3 2.175 3.675 1.5 4.5 1.5H19.185C18.87 2.01 18.615 2.565 18.48 3.165C17.19 3.195 15.975 3.675 15 4.5ZM7.5 18C3.36 18 0 21.36 0 25.5C0 29.64 3.36 33 7.5 33C11.64 33 15 29.64 15 25.5C15 21.36 11.64 18 7.5 18ZM7.5 30.75C4.605 30.75 2.25 28.395 2.25 25.5C2.25 22.605 4.605 20.25 7.5 20.25C10.395 20.25 12.75 22.605 12.75 25.5C12.75 28.395 10.395 30.75 7.5 30.75ZM28.5 18C24.36 18 21 21.36 21 25.5C21 29.64 24.36 33 28.5 33C32.64 33 36 29.64 36 25.5C36 21.36 32.64 18 28.5 18ZM28.5 30.75C25.605 30.75 23.25 28.395 23.25 25.5C23.25 22.605 25.605 20.25 28.5 20.25C31.395 20.25 33.75 22.605 33.75 25.5C33.75 28.395 31.395 30.75 28.5 30.75ZM7.98 16.5H1.5C0.672 16.5 0 15.825 0 15C0 14.175 0.672 13.5 1.5 13.5H7.575C7.545 13.74 7.5 13.995 7.5 14.25C7.5 15.045 7.68 15.81 7.98 16.5ZM9 10.5H3C2.175 10.5 1.5 9.825 1.5 9C1.5 8.175 2.175 7.5 3 7.5H11.955L9.135 10.305C9.075 10.365 9 10.44 9 10.5Z" fill="#042A2B"/>
</g>
<defs>
<clipPath id="clip0_465_72">
<rect width="36" height="36" fill="white"/>
</clipPath>
</defs>
</svg>
