<svg width="24" height="24" viewBox="0 0 24 24" fill="none" xmlns="http://www.w3.org/2000/svg">
<path d="M0 12.75C-4.40291e-09 12.4545 0.0581981 12.1619 0.171271 11.889C0.284344 11.616 0.450078 11.3679 0.65901 11.159C0.867942 10.9501 1.11598 10.7843 1.38896 10.6713C1.66194 10.5582 1.95453 10.5 2.25 10.5C2.54547 10.5 2.83806 10.5582 3.11104 10.6713C3.38402 10.7843 3.63206 10.9501 3.84099 11.159C4.04992 11.3679 4.21566 11.616 4.32873 11.889C4.4418 12.1619 4.5 12.4545 4.5 12.75V21.75C4.5 22.3467 4.26295 22.919 3.84099 23.341C3.41903 23.7629 2.84674 24 2.25 24C1.65326 24 1.08097 23.7629 0.65901 23.341C0.237053 22.919 8.89208e-09 22.3467 0 21.75V12.75Z" fill="#042A2B"/>
<path d="M6 12.4995V20.6445C5.99974 21.202 6.15483 21.7485 6.44787 22.2228C6.74091 22.6971 7.1603 23.0803 7.659 23.3295L7.734 23.367C8.56633 23.783 9.484 23.9997 10.4145 24H18.5385C19.2323 24.0003 19.9047 23.7601 20.4413 23.3203C20.9779 22.8805 21.3455 22.2683 21.4815 21.588L23.2815 12.588C23.3685 12.1528 23.3578 11.7037 23.2503 11.2732C23.1428 10.8426 22.9411 10.4412 22.6597 10.098C22.3783 9.75481 22.0243 9.4783 21.6232 9.28843C21.2221 9.09856 20.7838 9.00005 20.34 9H15V3C15 2.20435 14.6839 1.44129 14.1213 0.87868C13.5587 0.31607 12.7956 0 12 0C11.6022 0 11.2206 0.158035 10.9393 0.43934C10.658 0.720644 10.5 1.10218 10.5 1.5V2.5005C10.5 3.79872 10.0789 5.06192 9.3 6.1005L7.2 8.8995C6.42107 9.93808 6 11.2013 6 12.4995Z" fill="#042A2B"/>
</svg>
