<svg width="24" height="27" viewBox="0 0 24 27" fill="none" xmlns="http://www.w3.org/2000/svg">
<path d="M12.5 16.815V19.4275C11.3687 19.0275 10.1578 18.9048 8.96926 19.0697C7.78067 19.2347 6.649 19.6824 5.66929 20.3753C4.68958 21.0682 3.89043 21.986 3.33895 23.0518C2.78748 24.1175 2.49977 25.3 2.5 26.5L3.23071e-07 26.4988C-0.000387643 24.9724 0.348652 23.4661 1.02037 22.0955C1.6921 20.7248 2.66867 19.5262 3.87527 18.5913C5.08187 17.6564 6.48647 17.0102 7.98144 16.7021C9.47641 16.3939 11.0221 16.4322 12.5 16.8138V16.815ZM10 15.25C5.85625 15.25 2.5 11.8938 2.5 7.75C2.5 3.60625 5.85625 0.25 10 0.25C14.1438 0.25 17.5 3.60625 17.5 7.75C17.5 11.8938 14.1438 15.25 10 15.25ZM10 12.75C12.7625 12.75 15 10.5125 15 7.75C15 4.9875 12.7625 2.75 10 2.75C7.2375 2.75 5 4.9875 5 7.75C5 10.5125 7.2375 12.75 10 12.75ZM19.2725 20.25H23.755V22.75H19.2725L21.5588 25.035L19.7913 26.8037L14.4875 21.5L19.7913 16.1962L21.5588 17.965L19.2725 20.25Z" fill="white"/>
</svg>
