<svg width="34" height="34" viewBox="0 0 34 34" fill="none" xmlns="http://www.w3.org/2000/svg">
<path d="M17 1.16669C8.25526 1.16669 1.16667 8.25527 1.16667 17C1.16667 25.7448 8.25526 32.8334 17 32.8334C25.7448 32.8334 32.8333 25.7448 32.8333 17C32.8333 8.25527 25.7448 1.16669 17 1.16669Z" stroke="#042A2B" stroke-width="1.5" stroke-linecap="round" stroke-linejoin="round"/>
<path d="M4.76242 27.0479C4.76242 27.0479 8.29167 22.5417 17 22.5417C25.7083 22.5417 29.2392 27.0479 29.2392 27.0479" stroke="#042A2B" stroke-width="1.5" stroke-linecap="round" stroke-linejoin="round"/>
<path d="M17 17C18.2598 17 19.468 16.4996 20.3588 15.6088C21.2496 14.718 21.75 13.5098 21.75 12.25C21.75 10.9902 21.2496 9.78204 20.3588 8.89124C19.468 8.00045 18.2598 7.5 17 7.5C15.7402 7.5 14.532 8.00045 13.6412 8.89124C12.7504 9.78204 12.25 10.9902 12.25 12.25C12.25 13.5098 12.7504 14.718 13.6412 15.6088C14.532 16.4996 15.7402 17 17 17V17Z" stroke="#042A2B" stroke-width="1.5" stroke-linecap="round" stroke-linejoin="round"/>
</svg>
